<svg width="183" height="56" fill="none" xmlns="http://www.w3.org/2000/svg"><path fill-rule="evenodd" clip-rule="evenodd" d="m161.721 1.394-54.01 54.01h21.201l40.547-40.547L183 28.4V1.394h-21.279Z" fill="#FF5000"/><path fill-rule="evenodd" clip-rule="evenodd" d="m155.995 1.394-13.541 13.463-13.542-13.463h27.083ZM134.716 55.404l34.743-34.743L183 34.2v21.203L169.459 41.94l-13.464 13.464h-21.279Z" fill="#002E6D"/><path d="M104.383 36.291c1.858 0 3.56-.232 5.107-.774 1.548-.464 2.941-1.238 4.024-2.166a9.143 9.143 0 0 0 2.631-3.328c.619-1.315.929-2.708.929-4.333 0-1.16-.233-2.244-.619-3.25-.387-1.006-.929-1.857-1.625-2.553a10.744 10.744 0 0 0-2.399-1.78c.774-.464 1.547-1.083 2.166-1.857.619-.696 1.084-1.547 1.471-2.476.387-.928.541-1.857.541-2.94 0-1.47-.309-2.863-.928-4.101s-1.47-2.244-2.554-3.096c-1.083-.85-2.398-1.547-3.869-2.011-1.47-.465-3.095-.697-4.952-.697-1.625 0-3.172.232-4.643.697-1.47.464-2.785 1.16-3.868 2.089-1.161.928-2.09 2.09-2.94 3.482-.775 1.393-1.316 3.018-1.626 4.875h8.434a5.762 5.762 0 0 1 .852-1.857c.386-.62.851-1.084 1.47-1.393.619-.387 1.393-.542 2.321-.542.774 0 1.47.155 2.012.387.619.232 1.006.62 1.315 1.083.31.465.465 1.006.465 1.625 0 1.006-.387 1.857-1.006 2.399-.697.62-1.625.851-2.786.851h-4.565v6.887h4.565c1.006 0 1.78.155 2.399.464.619.31 1.083.697 1.393 1.316.309.541.464 1.16.464 1.857 0 .696-.155 1.315-.464 1.78-.31.541-.774.928-1.471 1.237-.619.31-1.392.465-2.398.465-.929 0-1.703-.155-2.322-.542-.619-.31-1.083-.774-1.47-1.315-.387-.542-.619-1.161-.851-1.858h-8.434c.31 1.858.85 3.483 1.625 4.875a11.741 11.741 0 0 0 2.94 3.482 12.52 12.52 0 0 0 3.869 2.09c1.625.696 3.173.928 4.797.928ZM76.837 23.68H70.8l3.095-9.209 2.94 9.208Zm12.767 12.303L76.992 1.393h-6.578L57.802 35.982H66.7l1.703-5.185H79.08l1.625 5.185h8.898ZM29.945 25.149c.31 1.857.852 3.482 1.625 4.874a11.74 11.74 0 0 0 2.94 3.482 12.518 12.518 0 0 0 3.87 2.09c1.47.464 3.017.696 4.642.696 2.012 0 3.792-.31 5.417-1.006 1.547-.619 3.018-1.625 4.256-2.863.928-.928 1.625-1.934 2.089-2.94.464-1.084.851-2.167 1.006-3.327.232-1.161.31-2.4.31-3.637 0-1.238.077-2.554 0-3.87V14.78c0-1.238-.155-2.476-.31-3.637-.232-1.16-.542-2.244-1.006-3.327-.464-1.083-1.16-2.012-2.09-2.94-1.237-1.316-2.708-2.244-4.255-2.94-1.548-.62-3.405-1.007-5.417-1.007-1.625 0-3.172.232-4.642.697-1.47.464-2.709 1.16-3.87 2.089-1.16.928-2.088 2.09-2.94 3.482-.773 1.393-1.315 3.018-1.625 4.875h8.512c.155-.62.464-1.238.851-1.857.387-.542.851-1.006 1.47-1.316.62-.387 1.393-.541 2.322-.541.773 0 1.47.154 2.089.464.619.31 1.083.696 1.393 1.083.232.232.387.542.541.929.155.386.31.85.387 1.47.155.619.233 1.47.31 2.476h-9.208v7.428h9.208c-.078.851-.078 1.47-.232 2.012-.078.542-.155 1.006-.31 1.393a2.585 2.585 0 0 1-.387.928l-.464.697c-.31.464-.851.774-1.393 1.083-.619.31-1.315.464-2.089.464-.928 0-1.702-.154-2.321-.541-.62-.31-1.084-.774-1.47-1.316-.388-.541-.62-1.16-.852-1.857h-8.357v.078ZM8.59 35.982V17.875l10.214 18.107h10.06L17.487 17.488 27.7 1.393h-9.75L8.59 17.798V1.393H.077v34.589H8.59ZM4.797 52.618c0 .928-.154 1.625-.541 2.166-.387.465-1.006.774-1.857.774s-1.47-.232-1.857-.696C.155 54.397 0 53.778 0 53.005v-5.107c0-.387 0-.697.077-1.084.078-.31.155-.696.387-.928.155-.31.387-.464.697-.62.31-.154.696-.231 1.238-.231.541 0 .928.077 1.238.232.31.155.541.31.696.619.155.232.31.541.31.928.077.31.077.697.077 1.161v4.643h.077Zm-1.16-4.953v-.541c0-.155-.078-.387-.155-.542a.933.933 0 0 0-.387-.387 1.459 1.459 0 0 0-.619-.154c-.31 0-.542.077-.696.232-.155.154-.31.31-.387.541-.078.233-.155.387-.155.62V53.004c0 .154 0 .31.077.464 0 .155.078.31.155.464.078.155.232.232.387.387.155.078.387.155.62.155.231 0 .463-.078.618-.155a.933.933 0 0 0 .387-.387c.077-.155.155-.31.155-.541 0-.233.077-.387.077-.62v-5.106h-.077ZM10.369 44.958c.774 0 1.393.232 1.78.619.386.464.541 1.006.541 1.702l-1.16.232c0-.464-.078-.851-.233-1.083-.155-.232-.464-.387-.85-.387-.233 0-.465.077-.62.155-.155.077-.232.232-.387.387-.077.154-.155.309-.155.541 0 .232-.077.387-.077.542v5.262c0 .154 0 .309.077.464 0 .154.078.31.155.464.078.155.232.232.31.387.154.077.31.155.541.155.387 0 .697-.155.851-.387.155-.232.31-.62.31-1.16l1.238.231c0 .774-.232 1.316-.619 1.78-.387.387-.928.619-1.702.619-.774 0-1.393-.232-1.78-.619-.387-.464-.619-1.083-.619-1.857v-5.107c0-.387 0-.697.077-1.083.078-.387.155-.697.387-.929.155-.31.387-.464.697-.696.31-.155.773-.232 1.238-.232ZM19.19 55.403v-4.797H16.79v4.797h-1.16V45.035h1.16V49.6h2.399v-4.565h1.16v10.368h-1.16ZM28.475 52.618c0 .928-.155 1.625-.541 2.166-.387.465-1.006.774-1.858.774-.85 0-1.47-.232-1.857-.696-.386-.465-.541-1.084-.541-1.857v-5.107c0-.387 0-.697.077-1.084.078-.31.155-.696.387-.928.155-.31.387-.464.697-.62.309-.154.696-.231 1.238-.231.541 0 .928.077 1.238.232.31.155.541.31.696.619.155.232.31.541.31.928.077.31.077.697.077 1.161v4.643h.077Zm-1.238-4.953v-.541c0-.155-.077-.387-.154-.542a.933.933 0 0 0-.387-.387 1.46 1.46 0 0 0-.62-.154c-.309 0-.541.077-.696.232-.155.154-.31.31-.387.541-.077.233-.154.387-.154.62V53.004c0 .154 0 .31.077.464 0 .155.077.31.155.464.077.155.232.232.386.387.155.078.387.155.62.155.232 0 .464-.078.619-.155a.933.933 0 0 0 .386-.387c.078-.155.155-.31.155-.541 0-.233.078-.387.078-.62v-5.106h-.078ZM35.285 49.987c.464.155.773.387.928.851.155.387.232.929.232 1.548 0 1.083-.232 1.857-.696 2.321-.465.464-1.16.696-2.09.696h-2.011V45.035h2.166c.929 0 1.548.232 1.857.696.387.464.542 1.16.542 2.012 0 .542-.077 1.006-.232 1.315 0 .387-.31.62-.697.929Zm-.078-2.167c0-.541-.155-.928-.387-1.238-.232-.31-.619-.387-1.16-.387h-.774v3.328h.774c.541 0 .928-.155 1.16-.465.31-.31.387-.696.387-1.238Zm.078 4.41c0-.54-.078-1.005-.31-1.315-.232-.31-.619-.464-1.238-.464h-.851v3.87h.928c.31 0 .62-.078.774-.156.232-.077.31-.232.464-.464.078-.232.155-.387.233-.696v-.774ZM43.487 55.403l-.465-2.321h-2.321l-.464 2.321h-1.16l2.243-10.368h1.083l2.244 10.368h-1.16Zm-1.703-8.202L41.32 49.6l-.464 2.399h1.934l-.541-2.476-.465-2.322ZM50.915 55.403v-4.797h-2.399v4.797h-1.16V45.035h1.16V49.6h2.399v-4.565h1.16v10.368h-1.16ZM63.76 49.987c.464.155.774.387.928.851.155.387.233.929.233 1.548 0 1.083-.233 1.857-.697 2.321-.464.464-1.16.696-2.09.696H60.2V45.035h2.167c.929 0 1.548.232 1.857.696.387.464.542 1.16.542 2.012 0 .542-.078 1.006-.232 1.315-.078.387-.387.62-.774.929Zm-.078-2.167c0-.541-.154-.928-.386-1.238-.233-.31-.62-.387-1.161-.387h-.774v3.328h.774c.541 0 .928-.155 1.16-.465.31-.31.387-.696.387-1.238Zm.078 4.41c0-.54-.078-1.005-.31-1.315-.232-.31-.619-.464-1.238-.464h-.85v3.87h.928c.31 0 .619-.078.773-.156.233-.077.31-.232.465-.464.154-.232.154-.387.232-.696v-.774ZM75.057 55.404v-9.131l-1.47 1.238v-1.238l1.47-1.16h1.238V55.48h-1.238v-.077ZM82.718 50.838a1.307 1.307 0 0 1-.774.232c-.31 0-.62-.077-.774-.154-.232-.078-.387-.232-.542-.387-.154-.155-.232-.387-.31-.62-.077-.231-.076-.463-.076-.773v-2.167c0-.31.077-.619.154-.85.078-.233.232-.465.465-.62.232-.155.386-.31.696-.387.232-.077.541-.154.774-.154.696 0 1.16.154 1.547.541.387.31.542.851.542 1.47v1.703c0 .464 0 .85-.078 1.083-.077.31-.154.542-.232.774l-1.934 4.875h-1.16l1.701-4.566Zm-1.316-1.625c0 .233.078.465.232.62a.879.879 0 0 0 .62.232c.154 0 .309 0 .463-.078.155-.077.233-.155.31-.232a.591.591 0 0 0 .155-.387c0-.155.077-.232.077-.387v-2.089a.879.879 0 0 0-.232-.619c-.155-.155-.387-.232-.696-.232-.233 0-.465.077-.697.232-.154.155-.232.31-.232.619v2.321ZM91.539 53.778v1.625h-1.161v-1.625h-3.095v-1.083l2.166-7.66h1.161l-2.166 7.66h1.934v-2.863h1.16v2.863h.697v1.083h-.696ZM97.187 55.558c-.387 0-.773-.077-1.006-.155-.232-.154-.464-.31-.619-.541-.154-.232-.31-.465-.386-.774-.078-.31-.155-.62-.155-.929l1.16-.154v.619c0 .154.078.31.155.464a.605.605 0 0 0 .31.31c.154.077.31.077.541.077a.878.878 0 0 0 .62-.232c.154-.155.231-.465.309-.851v-2.709c0-.619-.31-.85-.851-.85-.233 0-.387.077-.62.154a.933.933 0 0 0-.386.387h-1.006v-5.34h4.023v1.084H96.26v3.095h.077c.155-.155.31-.232.542-.31.232-.077.464-.077.696-.077.62 0 1.006.155 1.238.465.232.309.387.696.387 1.238v2.785c0 .387-.077.774-.155 1.006-.077.31-.232.542-.464.697-.232.154-.387.309-.696.386a1.545 1.545 0 0 1-.697.155Z" fill="#002E6D"/></svg>