<svg width="1186" height="184" fill="none" xmlns="http://www.w3.org/2000/svg"><mask id="a" style="mask-type:alpha" maskUnits="userSpaceOnUse" x="14" y="24" width="1163" height="154"><path d="M34.139 130.752h-19.68v-18.077H37.8l5.034-23.798H14.46V70.571h32.035l8.467-41.875h19.679L66.174 70.57H80.82l8.467-41.875h19.679l-8.467 41.875h19.222v18.306H96.608l-4.805 23.798h27.917v18.077H88.142l-8.924 44.164h-19.68l8.925-44.164H53.818l-8.924 44.164h-19.68l8.925-44.164Zm37.985-18.077 5.034-23.798H62.284l-4.805 23.798h14.645Zm77.361-86.267h59.495c14.493 0 25.934.991 34.324 2.974 8.543 1.983 14.721 5.492 18.535 10.526 3.966 4.882 5.95 11.747 5.95 20.595v28.145c0 9.764-2.136 17.391-6.408 22.883-4.118 5.492-10.754 9.382-19.907 11.67-9.001 2.288-21.205 3.433-36.613 3.433h-19.679v48.282h-35.697V26.408Zm58.351 75.741c9.306 0 15.865-1.068 19.679-3.203 3.814-2.289 5.721-6.102 5.721-11.442V63.706c0-4.881-1.831-8.085-5.492-9.61-3.509-1.526-10.297-2.289-20.366-2.289h-22.196v50.342h22.654Zm85.113-75.742h66.817c19.832 0 34.172 2.441 43.02 7.323 8.848 4.73 13.272 12.738 13.272 24.027v26.086c0 8.695-3.128 15.56-9.382 20.594-6.102 4.882-14.264 8.009-24.485 9.382l43.02 61.097h-41.189l-38.901-58.351h-16.475v58.351h-35.697V26.408Zm66.36 66.59c8.39 0 14.111-1.069 17.162-3.204 3.051-2.289 4.576-6.637 4.576-13.044V66.223c0-5.492-1.678-9.229-5.034-11.212-3.204-2.136-8.772-3.204-16.704-3.204h-30.663v41.19h30.663Zm153.535 84.207c-8.238 0-15.865-.534-22.883-1.602-6.864-1.067-14.034-2.898-21.509-5.491-8.086-2.746-14.416-7.17-18.993-13.272-4.576-6.255-6.865-13.806-6.865-22.654V69.198c0-7.322 1.602-13.882 4.806-19.679 3.356-5.797 7.627-10.373 12.814-13.73 4.576-2.898 10.221-5.339 16.933-7.322 6.712-1.983 12.967-3.204 18.764-3.661 5.339-.458 10.984-.687 16.933-.687 7.017 0 13.119.305 18.306.916 5.187.457 10.984 1.525 17.391 3.203 7.322 2.136 13.348 4.73 18.077 7.78 4.729 3.051 8.696 7.323 11.899 12.815 3.356 5.644 5.034 12.433 5.034 20.365v64.987c0 8.238-2.212 15.331-6.636 21.281-4.271 5.949-10.22 10.45-17.848 13.501-13.73 5.491-29.137 8.237-46.223 8.237Zm.458-25.399c5.034 0 9.229-.153 12.585-.458 3.509-.458 7.094-1.221 10.755-2.288 3.661-1.068 6.407-2.823 8.238-5.263 1.983-2.594 2.975-5.797 2.975-9.611V68.969c0-7.017-2.823-11.975-8.467-14.873-5.644-3.051-14.416-4.577-26.315-4.577-11.899 0-20.671 1.45-26.315 4.348-5.645 2.898-8.467 7.932-8.467 15.102v65.216c0 3.814.992 7.017 2.975 9.611 1.983 2.44 4.882 4.195 8.695 5.263 3.662 1.067 7.17 1.83 10.526 2.288 3.509.305 7.781.458 12.815.458Zm98.976-125.398h35.697v148.509h-35.697V26.408ZM648.89 96.2l55.605-69.793h41.876l-56.292 69.106 62.47 79.403h-43.477L648.89 96.2Zm119.366-69.793h113.269v25.4h-77.572v34.096h70.021v25.399h-70.021v38.214h79.86v25.4H768.256V26.408Zm179.023 0h43.477l53.544 148.509h-36.15l-13.275-39.129h-54.232l-13.044 39.129H892.36l54.919-148.508Zm39.815 85.582-18.763-55.834h-.916l-18.763 55.834h38.442Zm66.806 41.188 77.35-101.37h-75.06v-25.4h118.99v21.51l-77.34 101.37h78.72v25.629H1053.9v-21.739Z" fill="#FFB06A"/></mask><g mask="url(#a)" stroke="#FFB06A" stroke-width="5"><path d="m-389.593 460.626 688.42-688.42M-368.031 460.626l688.421-688.42M-346.468 460.626l688.421-688.42M-324.905 460.626l688.42-688.42M-303.343 460.626l688.421-688.42M-281.78 460.626l688.421-688.42M-260.217 460.626l688.42-688.42M-238.655 460.626l688.421-688.42M-217.092 460.626l688.421-688.42M-195.529 460.626l688.42-688.42M-173.966 460.626l688.42-688.42M-152.404 460.626l688.421-688.42M-130.841 460.626l688.421-688.42M-109.278 460.626l688.42-688.42M-87.716 460.626l688.421-688.42M-66.153 460.626l688.421-688.42M-44.59 460.626l688.42-688.42M-23.027 460.626l688.42-688.42M-1.465 460.626l688.421-688.42M20.098 460.626l688.42-688.42M41.66 460.626l688.421-688.42M63.223 460.626l688.421-688.42M84.786 460.626l688.42-688.42M106.349 460.626l688.42-688.42M127.911 460.626l688.421-688.42M149.474 460.626l688.421-688.42M171.037 460.626l688.42-688.42M192.599 460.626l688.421-688.42M214.162 460.626l688.421-688.42M235.725 460.626l688.42-688.42M257.287 460.626l688.421-688.42M278.85 460.626l688.421-688.42M300.413 460.626l688.42-688.42M321.976 460.626l688.424-688.42M343.538 460.626l688.422-688.42M365.101 460.626l688.419-688.42M386.664 460.626l688.416-688.42M408.226 460.626l688.424-688.42M429.789 460.626l688.421-688.42M451.352 460.626l688.418-688.42M472.914 460.626l688.426-688.42M494.477 460.626l688.423-688.42M516.04 460.626l688.42-688.42M537.603 460.626l688.417-688.42M559.165 460.626l688.425-688.42M580.728 460.626l688.422-688.42M602.291 460.626l688.419-688.42M623.854 460.626l688.416-688.42M645.417 460.626l688.423-688.42M666.979 460.626l688.421-688.42M688.542 460.626l688.418-688.42M710.105 460.626l688.425-688.42M731.668 460.626l688.422-688.42M753.23 460.626l688.42-688.42M774.793 460.626l688.417-688.42M796.356 460.626l688.424-688.42M817.919 460.626l688.421-688.42M839.482 460.626l688.418-688.42M861.044 460.626l688.416-688.42M882.607 460.626l688.423-688.42M904.17 460.626l688.42-688.42"/></g></svg>