<svg width="601" height="367" fill="none" xmlns="http://www.w3.org/2000/svg"><mask id="a" style="mask-type:alpha" maskUnits="userSpaceOnUse" x="13" y="23" width="571" height="335"><path d="M33.675 130.143h-19.68v-18.078h23.341l5.034-23.798H13.996V69.961h32.036l8.466-41.875h19.68L65.71 69.96h14.645l8.466-41.875h19.679l-8.466 41.875h19.221v18.306H96.145l-4.806 23.798h27.917v18.078H87.678l-8.924 44.163h-19.68L68 130.143H53.354l-8.924 44.163H24.75l8.925-44.163Zm37.985-18.078 5.034-23.798H61.821l-4.806 23.798H71.66Zm77.361-86.267h59.495c14.493 0 25.934.991 34.324 2.974 8.543 1.984 14.722 5.492 18.535 10.526 3.967 4.882 5.95 11.747 5.95 20.595v28.145c0 9.764-2.136 17.391-6.407 22.883-4.119 5.492-10.755 9.382-19.908 11.67-9.001 2.289-21.205 3.433-36.612 3.433h-19.68v48.282h-35.697V25.798Zm58.351 75.741c9.306 0 15.866-1.068 19.679-3.203 3.814-2.289 5.721-6.102 5.721-11.442V63.096c0-4.881-1.831-8.085-5.492-9.61-3.508-1.526-10.297-2.289-20.365-2.289h-22.197v50.342h22.654Zm85.113-75.741h66.817c19.832 0 34.172 2.44 43.02 7.322 8.848 4.73 13.272 12.738 13.272 24.027v26.086c0 8.696-3.128 15.56-9.382 20.595-6.102 4.881-14.264 8.008-24.485 9.381l43.02 61.097h-41.189l-38.9-58.351h-16.476v58.351h-35.697V25.798Zm66.36 66.588c8.39 0 14.111-1.068 17.162-3.203 3.051-2.289 4.576-6.636 4.576-13.044V65.614c0-5.492-1.678-9.23-5.034-11.213-3.203-2.136-8.772-3.204-16.704-3.204h-30.663v41.19h30.663Zm153.535 84.208c-8.237 0-15.865-.534-22.882-1.601-6.865-1.068-14.035-2.899-21.51-5.492-8.085-2.746-14.416-7.17-18.993-13.272-4.576-6.255-6.864-13.806-6.864-22.654V68.588c0-7.322 1.601-13.882 4.805-19.679 3.356-5.797 7.627-10.373 12.814-13.73 4.577-2.898 10.221-5.339 16.933-7.322 6.713-1.983 12.967-3.203 18.764-3.661 5.339-.458 10.984-.687 16.933-.687 7.018 0 13.12.305 18.306.916 5.187.457 10.984 1.525 17.391 3.203 7.323 2.136 13.348 4.73 18.078 7.78 4.729 3.051 8.695 7.323 11.899 12.815 3.356 5.644 5.034 12.433 5.034 20.365v64.987c0 8.238-2.212 15.331-6.636 21.281-4.272 5.949-10.221 10.45-17.849 13.501-13.729 5.491-29.137 8.237-46.223 8.237Zm.458-25.399c5.034 0 9.229-.153 12.585-.458 3.509-.458 7.094-1.22 10.755-2.288 3.661-1.068 6.407-2.822 8.238-5.263 1.983-2.594 2.975-5.797 2.975-9.611V68.359c0-7.017-2.822-11.975-8.467-14.873-5.644-3.051-14.416-4.577-26.315-4.577-11.899 0-20.671 1.45-26.315 4.348-5.644 2.898-8.467 7.933-8.467 15.102v65.216c0 3.814.992 7.017 2.975 9.611 1.983 2.441 4.882 4.195 8.696 5.263 3.661 1.068 7.17 1.83 10.526 2.288 3.508.305 7.78.458 12.814.458ZM16.284 208.798h35.697v148.508H16.284V208.798Zm36.612 69.792 55.605-69.792h41.876l-56.292 69.105 62.47 79.403h-43.477L52.896 278.59Zm119.366-69.792h113.269v25.399h-77.572v34.096h70.021v25.399h-70.021v38.214h79.86v25.4H172.262V208.798Zm179.023 0h43.477l53.545 148.508h-36.155l-13.272-39.129h-54.231l-13.044 39.129h-35.239l54.919-148.508Zm39.815 85.581-18.763-55.834h-.916l-18.763 55.834H391.1Zm66.811 41.189 77.343-101.371h-75.055v-25.399h118.99v21.509l-77.344 101.371h78.717v25.628H457.911v-21.738Z" fill="#9BCAEB"/></mask><g mask="url(#a)" stroke="#9BCAEB" stroke-width="5"><path d="m-336.316 412.516 458.421-458.42M-321.957 412.516l458.421-458.42M-307.598 412.516l458.42-458.42M-293.24 412.516l458.421-458.42M-278.881 412.516 179.54-45.904M-264.522 412.516l458.42-458.42M-250.164 412.516l458.421-458.42M-235.805 412.516l458.421-458.42M-221.446 412.516l458.42-458.42M-207.088 412.516l458.421-458.42M-192.729 412.516l458.421-458.42M-178.37 412.516l458.42-458.42M-164.012 412.516l458.421-458.42M-149.653 412.516l458.421-458.42M-135.295 412.516l458.421-458.42M-120.936 412.516l458.421-458.42M-106.577 412.516l458.421-458.42M-92.219 412.516l458.421-458.42M-77.86 412.516l458.421-458.42M-63.501 412.516l458.42-458.42M-49.143 412.516l458.421-458.42M-34.784 412.516l458.421-458.42M-20.425 412.516l458.42-458.42M-6.067 412.516l458.421-458.42M8.292 412.516l458.421-458.42M22.65 412.516l458.421-458.42M37.01 412.516l458.42-458.42M51.368 412.516l458.421-458.42M65.727 412.516l458.42-458.42M80.085 412.516l458.421-458.42M94.444 412.516l458.421-458.42M108.802 412.516l458.421-458.42M123.161 412.516l458.421-458.42M137.52 412.516l458.421-458.42M151.878 412.516l458.421-458.42M166.237 412.516l458.421-458.42M180.596 412.516l458.42-458.42M194.954 412.516l458.421-458.42M209.313 412.516l458.421-458.42M223.672 412.516l458.42-458.42M238.03 412.516l458.421-458.42M252.389 412.516 710.81-45.904M266.748 412.516l458.42-458.42M281.106 412.516l458.421-458.42M295.465 412.516l458.421-458.42M309.824 412.516l458.42-458.42M324.182 412.516l458.421-458.42M338.541 412.516l458.421-458.42M352.9 412.516l458.421-458.42M367.258 412.516l458.421-458.42M381.617 412.516l458.421-458.42M395.976 412.516l458.421-458.42M410.335 412.516l458.42-458.42M424.693 412.516l458.421-458.42M439.052 412.516l458.421-458.42M453.411 412.516l458.42-458.42M467.769 412.516 926.19-45.904M482.128 412.516l458.421-458.42M496.487 412.516l458.421-458.42M510.845 412.516l458.421-458.42M525.204 412.516l458.421-458.42"/></g></svg>